<?xml version="1.0" standalone="no"?><!DOCTYPE svg PUBLIC "-//W3C//DTD SVG 1.1//EN" "http://www.w3.org/Graphics/SVG/1.1/DTD/svg11.dtd"><svg t="1578882903529" class="icon" viewBox="0 0 1024 1024" version="1.1" xmlns="http://www.w3.org/2000/svg" p-id="3140" xmlns:xlink="http://www.w3.org/1999/xlink" width="200" height="200"><defs><style type="text/css"></style></defs><path d="M458.110506 657.033463c-0.099611-58.172763-47.215564-105.288716-105.288716-105.288716-58.172763 0.099611-105.288716 47.215564-105.288716 105.288716 0.099611 58.172763 47.215564 105.288716 105.288716 105.288716 58.172763 0 105.288716-47.115953 105.288716-105.288716z m-157.98288 0c0.099611-28.98677 23.707393-52.594553 52.694164-52.694163 28.98677 0.099611 52.594553 23.707393 52.694163 52.694163-0.099611 28.98677-23.607782 52.594553-52.694163 52.694163-28.98677-0.099611-52.494942-23.607782-52.694164-52.694163z m0 0" p-id="3141"></path><path d="M906.459144 393.761868v-0.896498H352.82179c-145.232685 0-263.271595 118.536965-263.271595 263.769649s118.038911 263.470817 263.271595 263.470818 263.271595-117.9393 263.271595-263.171985c0-18.627237-4.382879-36.357977-9.761867-53.49105h299.43035c6.972763 0 14.045136-2.390661 19.025681-7.271596 4.980545-4.681712 7.869261-11.256031 8.068482-18.129183V420.059144c0-6.972763-2.789105-13.746304-7.670039-18.627237-4.980545-4.880934-18.726848-7.670039-18.726848-7.670039zM880.161868 550.848249H575.252918c-8.566537 0-16.635019 4.681712-21.515953 11.654475-4.880934 7.072374-6.175875 16.136965-3.28716 24.205447 8.068482 22.711284 13.049027 46.020233 13.049028 70.325292 0.099611 55.881712-22.21323 109.472374-61.758755 148.918288-39.445914 39.645136-93.036576 61.858366-148.818677 61.758755-55.881712 0-109.472374-22.21323-148.918288-61.758755-39.545525-39.445914-61.858366-93.036576-61.758755-148.918288 0-58.073152 23.607782-111.066148 61.758755-149.316731 38.250584-38.250584 90.745525-62.256809 148.918288-62.25681h527.340078V550.848249zM485.204669 104.093385c-6.972763 0-13.646693 2.789105-18.627237 7.670039-4.980545 4.980545-7.670039 11.654475-7.670039 18.627237v105.288716c0 14.543191 11.754086 26.297276 26.297276 26.297277 14.543191 0 26.297276-11.754086 26.297277-26.297277V130.490272c0-14.543191-11.754086-26.396887-26.297277-26.396887z m166.848249 84.868483l-74.508949 74.508949c-9.961089 10.359533-9.861479 26.795331 0.298833 36.955642 10.160311 10.160311 26.596109 10.259922 36.955642 0.298833l74.409338-74.50895c10.259922-10.259922 10.259922-26.894942 0-37.254474-10.259922-10.259922-26.894942-10.259922-37.154864 0z m-372.345525 0c-4.980545 4.980545-7.76965 11.654475-7.76965 18.627237s2.789105 13.646693 7.76965 18.627237l74.508949 74.50895c10.259922 10.259922 26.994553 10.259922 37.254475 0 10.259922-10.259922 10.259922-26.994553 0-37.254475l-74.508949-74.508949c-4.980545-4.980545-11.654475-7.76965-18.627238-7.76965-6.972763 0.099611-13.746304 2.888716-18.627237 7.76965z m0 0" p-id="3142"></path></svg>