<?xml version="1.0" standalone="no"?><!DOCTYPE svg PUBLIC "-//W3C//DTD SVG 1.1//EN" "http://www.w3.org/Graphics/SVG/1.1/DTD/svg11.dtd"><svg t="1578885082724" class="icon" viewBox="0 0 1024 1024" version="1.1" xmlns="http://www.w3.org/2000/svg" p-id="4741" xmlns:xlink="http://www.w3.org/1999/xlink" width="200" height="200"><defs><style type="text/css"></style></defs><path d="M114.496 368.384l9.6 0L124.096 262.976c0-27.392 11.136-52.736 29.376-71.488 0-0.512 0.512-0.512 1.024-0.96l0 0 0 0 0 0c18.752-18.816 44.096-30.4 72.448-30.4l490.432 0c27.392 0 52.672 11.136 70.912 28.864 0.576 0.512 1.024 1.024 1.536 1.536l0 0 0 0 0 0c18.816 18.752 29.888 44.032 29.888 72.448l0 70.4c48.64 12.16 91.712 36.992 125.632 70.912C994.112 452.928 1024 520.32 1024 594.88c0 73.92-29.888 141.376-78.528 189.952-48.64 48.64-116.032 79.04-190.464 79.04-73.984 0-141.376-30.4-190.016-79.04-23.296-22.784-42.112-49.664-55.232-79.488l-163.648 0 0 51.136c0 22.848-10.624 43.584-28.352 58.24-16.256 14.208-39.04 22.784-63.36 22.784L202.688 837.504c-24.32 0-47.104-8.576-63.36-22.784C121.6 800 110.976 779.264 110.976 756.48l0-51.136c-29.888-1.024-57.216-13.696-76.992-33.92l14.208-14.72-14.72 14.72c0-0.512-0.512-0.512-1.024-1.024C12.672 649.536 0 621.184 0 590.784L0 482.88c0-31.424 12.672-60.352 33.408-81.024l14.72 14.72-14.72-14.72C33.92 401.28 34.432 400.768 34.944 400.768 55.68 380.48 83.584 368.384 114.496 368.384L114.496 368.384zM641.984 595.84C633.792 587.712 620.672 588.224 613.056 596.352 604.992 604.48 605.44 617.664 613.568 625.728l124.096 118.08 14.208-15.232-14.208 15.232c8.064 7.552 21.312 7.552 29.376-1.024 1.536-1.536 3.008-4.032 4.032-6.528l129.728-266.56c5.056-10.112 0.512-22.784-9.6-27.328-10.112-5.056-22.272-0.96-27.328 9.088l-118.08 243.2L641.984 595.84zM744.832 366.848 744.832 366.848 744.832 366.848 743.808 367.36l0 0 0 0 0 0c-5.056 0-9.6 0.512-14.208 1.024l-0.512 0 0 0-0.512 0-0.512 0-0.512 0L727.04 368.384l-0.512 0-0.512 0.448 0 0-0.448 0-0.512 0-1.024 0-0.512 0c-5.056 1.024-10.624 1.536-15.744 3.072-6.528 1.024-13.184 3.008-19.264 5.056l-1.472 0 0 0L686.08 377.472l-1.024 0.512c-16.256 5.056-31.936 12.16-47.104 21.248L637.376 399.744 636.864 399.744 636.352 400.256C633.344 401.792 630.784 403.776 627.776 405.824l0 0 0 0 0 0L627.264 405.824l0 0 0 0C615.616 413.952 603.968 423.552 593.856 433.728c-15.232 15.232-28.352 32.896-39.04 52.16l0 0 0 0 0 0 0 0 0 0 0 0L554.816 486.4c-9.6 16.768-16.768 35.008-21.312 54.208l0 0 0 0c0 0.512 0 1.024 0 1.536l0 0L532.992 542.144l0 0c-0.96 4.544-1.984 9.6-2.496 14.72L529.984 557.312C529.472 560.896 528.96 564.416 528.448 567.936l0 0.512L528.448 568.96l0 0.512L528.448 571.52l0 0L528 574.08l0 0 0 0.512 0 1.536 0 0.96 0 0 0 0-0.512 2.56 0 0.512 0 0.512 0 1.472 0 1.024 0 0L527.488 583.68l0 1.024 0 1.024 0 0L527.488 586.24l0 0.96 0 0.512 0 1.024 0 0 0 1.024L526.976 591.232l0 0.512 0 0.512 0 2.56 0 1.472 0 0.512 0 1.024 0 0L526.976 598.4l0.512 1.024 0 0.96 0 0 0 0.512 0 0.512 0 2.048 0 0c0.96 25.856 6.016 50.624 15.168 73.472l0 0 0 0.448c11.648 29.888 29.376 56.256 51.2 78.528 41.536 41.088 98.24 66.88 161.152 66.88 62.784 0 120.064-25.792 161.088-66.88 41.536-41.536 66.88-98.24 66.88-161.088 0-62.848-25.344-120.064-66.88-161.152-41.024-41.536-98.304-66.88-161.088-66.88C751.872 366.848 748.352 366.848 744.832 366.848L744.832 366.848zM494.976 663.744c-4.032-14.784-6.528-30.4-8.064-46.144l-158.08 0c-11.648 0-20.8-9.088-20.8-20.8 0-11.136 9.088-20.288 20.8-20.288L486.4 576.512 486.4 575.104l0.512-0.512L486.912 574.08l0 0 0 0L486.912 573.568l0 0L486.912 571.584 486.912 571.072l0 0L486.912 570.56l0 0 0 0L486.912 570.048 486.912 569.536l0 0L486.912 569.024l0 0 0.512-0.512L487.424 568 487.424 567.424l0 0L487.424 566.976l0 0 0 0L487.424 566.464 487.424 565.952l0 0L487.424 565.44l0 0L487.424 564.928 487.424 564.416l0 0L487.424 563.904l0.512 0 0 0L487.936 563.392 487.936 562.88l0 0L487.936 562.368l0 0L487.936 561.856l0 0L487.936 561.408 487.936 560.896 487.936 560.384 487.936 559.872 488.448 559.36l0 0L488.448 558.848l0 0L488.448 558.336l0 0L488.448 557.824 488.448 557.312l0 0-159.616 0c-11.648 0-20.8-9.088-20.8-20.736 0-11.136 9.088-20.8 20.8-20.8l168.704 0c1.984-6.08 4.032-12.672 6.528-18.752L328.832 497.024c-11.648 0-20.8-9.6-20.8-20.8 0-11.648 9.088-20.736 20.8-20.736l195.52 0c10.112-16.768 22.336-31.936 35.456-46.144l-358.72 0-55.68 0L144.896 409.344 114.496 409.344c-19.776 0-37.504 7.616-50.624 20.8C63.36 430.208 63.36 430.72 62.848 430.72l0 0C49.6 444.352 41.024 462.592 41.024 482.88l0 107.968c0 19.264 8.064 37.504 20.8 50.624 0.512 0 0.512 0.512 1.024 1.024l0 0c13.184 13.184 31.36 21.312 51.648 21.312l17.28 0 193.472 0L494.976 663.744 494.976 663.744zM609.984 367.872c33.472-21.312 71.488-35.456 112.512-40.576L722.496 294.4c0-10.624-4.544-20.8-12.672-27.84-9.088-8.128-20.8-12.672-34.432-12.672L269.056 253.888c-13.696 0-25.792 4.544-34.432 12.672C226.496 273.6 221.44 283.712 221.44 294.4l0 73.984 388.608 0 0 0L610.048 367.872 609.984 367.872 609.984 367.872 609.984 367.872 609.984 367.872 609.984 367.872 609.984 367.872zM305.024 705.28 152 705.28l0 51.136c0 10.112 5.568 19.776 13.696 26.88 9.6 8.064 22.784 13.184 36.992 13.184l51.648 0c14.72 0 27.392-5.056 36.992-13.184 8.64-7.104 13.76-16.768 13.76-26.88L305.024 705.28 305.024 705.28zM269.056 212.288l406.336 0c23.808 0 45.632 9.088 61.824 23.296 16.768 15.232 26.88 35.968 26.88 58.752l0 31.36c4.992 0 9.6 0.512 14.72 1.024L778.816 262.976c0-16.768-7.104-32.448-17.792-43.648l14.208-14.208-14.72 14.208c0 0-0.512-0.512-0.512-0.96-11.136-10.112-26.304-16.768-42.56-16.768l-490.432 0c-16.768 0-32.448 6.592-43.584 17.728L169.216 205.184l14.208 14.208c0 0.512-0.512 1.024-1.024 1.024C172.224 231.552 165.696 246.272 165.696 262.976l0 105.408 14.656 0 0-73.984c0-22.784 10.112-43.584 26.88-58.752C222.976 221.44 245.248 212.288 269.056 212.288L269.056 212.288zM177.856 454.528c24.832 0 47.104 9.088 63.36 24.32 16.704 15.232 27.328 36.48 27.328 60.288S257.856 584.704 241.152 599.936c-16.256 15.168-38.528 24.32-63.36 24.32-24.32 0-47.104-9.152-63.36-24.32C97.792 584.704 87.68 562.88 87.68 539.072c0-23.808 10.112-45.056 26.816-60.288C130.752 463.616 153.536 454.528 177.856 454.528L177.856 454.528zM213.312 508.672C204.736 500.608 192 495.488 177.856 495.488c-13.696 0-26.368 5.056-35.456 13.184C133.76 516.8 128.704 527.424 128.704 539.072c0 12.16 5.056 22.784 13.696 30.4 9.088 8.576 21.824 13.696 35.456 13.696 14.208 0 26.88-5.056 35.456-13.696 8.576-7.616 13.696-18.24 13.696-30.4C227.008 527.424 221.952 516.8 213.312 508.672L213.312 508.672z" p-id="4742"></path></svg>